<svg width="472" height="498" viewBox="0 0 472 498" fill="none" xmlns="http://www.w3.org/2000/svg">
<rect width="472" height="498" fill="url(#paint0_linear_139_2)"/>
<g filter="url(#filter0_d_139_2)">
<path d="M221.4 243.6H270.8V313.6C263.067 316.133 255.267 318 247.4 319.2C239.533 320.4 230.6 321 220.6 321C205.8 321 193.333 318.067 183.2 312.2C173.067 306.2 165.333 297.733 160 286.8C154.8 275.733 152.2 262.667 152.2 247.6C152.2 232.667 155.133 219.733 161 208.8C166.867 197.867 175.267 189.4 186.2 183.4C197.267 177.267 210.6 174.2 226.2 174.2C234.2 174.2 241.733 174.933 248.8 176.4C256 177.867 262.667 179.933 268.8 182.6L262 198.2C256.933 195.933 251.2 194 244.8 192.4C238.533 190.8 232 190 225.2 190C213.867 190 204.133 192.333 196 197C187.867 201.667 181.667 208.333 177.4 217C173.133 225.533 171 235.733 171 247.6C171 258.933 172.8 269 176.4 277.8C180.133 286.467 185.933 293.267 193.8 298.2C201.667 303 212 305.4 224.8 305.4C229.067 305.4 232.8 305.267 236 305C239.333 304.6 242.333 304.133 245 303.6C247.8 303.067 250.4 302.533 252.8 302V259.6H221.4V243.6ZM284.708 357C281.508 357 278.708 356.733 276.308 356.2C273.908 355.8 271.774 355.2 269.908 354.4V339.2C272.041 339.733 274.308 340.2 276.708 340.6C279.108 341 281.641 341.2 284.308 341.2C287.641 341.2 290.774 340.533 293.708 339.2C296.774 337.867 299.241 335.533 301.108 332.2C302.974 328.867 303.908 324.2 303.908 318.2V176.2H321.908V316.8C321.908 326 320.374 333.533 317.308 339.4C314.241 345.4 309.908 349.8 304.308 352.6C298.708 355.533 292.174 357 284.708 357Z" fill="#FCFCFF" fill-opacity="0.88" shape-rendering="crispEdges"/>
<path d="M221.4 243.6V233.6H211.4V243.6H221.4ZM270.8 243.6H280.8V233.6H270.8V243.6ZM270.8 313.6L273.913 323.103L280.8 320.847V313.6H270.8ZM247.4 319.2L245.892 309.314L247.4 319.2ZM183.2 312.2L178.105 320.805L178.147 320.83L178.19 320.854L183.2 312.2ZM160 286.8L150.949 291.053L150.98 291.119L151.012 291.184L160 286.8ZM161 208.8L169.812 213.528L161 208.8ZM186.2 183.4L191.011 192.167L191.029 192.157L191.047 192.147L186.2 183.4ZM248.8 176.4L246.768 186.191L246.786 186.195L246.804 186.199L248.8 176.4ZM268.8 182.6L277.967 186.596L281.967 177.42L272.787 173.429L268.8 182.6ZM262 198.2L257.916 207.328L267.133 211.451L271.167 202.196L262 198.2ZM244.8 192.4L242.326 202.089L242.35 202.095L242.375 202.101L244.8 192.4ZM196 197L200.977 205.674L200.977 205.674L196 197ZM177.4 217L186.344 221.472L186.358 221.445L186.372 221.417L177.4 217ZM176.4 277.8L167.145 281.586L167.179 281.672L167.216 281.756L176.4 277.8ZM193.8 298.2L188.487 306.672L188.539 306.704L188.591 306.736L193.8 298.2ZM236 305L236.83 314.965L237.011 314.95L237.191 314.929L236 305ZM245 303.6L243.129 293.777L243.084 293.785L243.039 293.794L245 303.6ZM252.8 302L254.969 311.762L262.8 310.022V302H252.8ZM252.8 259.6H262.8V249.6H252.8V259.6ZM221.4 259.6H211.4V269.6H221.4V259.6ZM221.4 253.6H270.8V233.6H221.4V253.6ZM260.8 243.6V313.6H280.8V243.6H260.8ZM267.687 304.097C260.465 306.463 253.202 308.199 245.892 309.314L248.908 329.086C257.331 327.801 265.668 325.804 273.913 323.103L267.687 304.097ZM245.892 309.314C238.632 310.422 230.217 311 220.6 311V331C230.983 331 240.435 330.378 248.908 329.086L245.892 309.314ZM220.6 311C207.102 311 196.469 308.327 188.21 303.546L178.19 320.854C190.198 327.806 204.498 331 220.6 331V311ZM188.295 303.595C179.902 298.626 173.494 291.653 168.988 282.416L151.012 291.184C157.173 303.813 166.232 313.774 178.105 320.805L188.295 303.595ZM169.051 282.547C164.604 273.083 162.2 261.53 162.2 247.6H142.2C142.2 263.803 144.996 278.383 150.949 291.053L169.051 282.547ZM162.2 247.6C162.2 233.983 164.869 222.739 169.812 213.528L152.188 204.072C145.398 216.727 142.2 231.351 142.2 247.6H162.2ZM169.812 213.528C174.759 204.309 181.765 197.241 191.011 192.167L181.389 174.633C168.769 181.559 158.975 191.424 152.188 204.072L169.812 213.528ZM191.047 192.147C200.323 187.006 211.905 184.2 226.2 184.2V164.2C209.295 164.2 194.21 167.527 181.353 174.653L191.047 192.147ZM226.2 184.2C233.59 184.2 240.437 184.877 246.768 186.191L250.832 166.609C243.029 164.989 234.81 164.2 226.2 164.2V184.2ZM246.804 186.199C253.386 187.54 259.379 189.408 264.813 191.771L272.787 173.429C265.955 170.459 258.614 168.194 250.796 166.601L246.804 186.199ZM259.633 178.604L252.833 194.204L271.167 202.196L277.967 186.596L259.633 178.604ZM266.084 189.072C260.393 186.526 254.091 184.415 247.225 182.699L242.375 202.101C248.309 203.585 253.473 205.34 257.916 207.328L266.084 189.072ZM247.274 182.711C240.158 180.894 232.792 180 225.2 180V200C231.208 200 236.908 200.706 242.326 202.089L247.274 182.711ZM225.2 180C212.484 180 200.958 182.626 191.023 188.326L200.977 205.674C207.308 202.041 215.249 200 225.2 200V180ZM191.023 188.326C181.11 194.014 173.545 202.189 168.428 212.583L186.372 221.417C189.788 214.478 194.623 209.319 200.977 205.674L191.023 188.326ZM168.456 212.528C163.346 222.747 161 234.551 161 247.6H181C181 236.915 182.92 228.32 186.344 221.472L168.456 212.528ZM161 247.6C161 259.988 162.968 271.377 167.145 281.586L185.655 274.014C182.632 266.623 181 257.879 181 247.6H161ZM167.216 281.756C171.738 292.254 178.872 300.642 188.487 306.672L199.113 289.728C192.994 285.891 188.529 280.68 185.584 273.844L167.216 281.756ZM188.591 306.736C198.523 312.796 210.847 315.4 224.8 315.4V295.4C213.153 295.4 204.81 293.204 199.009 289.664L188.591 306.736ZM224.8 315.4C229.26 315.4 233.282 315.261 236.83 314.965L235.17 295.035C232.318 295.272 228.873 295.4 224.8 295.4V315.4ZM237.191 314.929C240.726 314.505 243.989 314 246.961 313.406L243.039 293.794C240.678 294.266 237.941 294.695 234.809 295.071L237.191 314.929ZM246.871 313.423C249.756 312.874 252.456 312.32 254.969 311.762L250.631 292.238C248.344 292.746 245.844 293.259 243.129 293.777L246.871 313.423ZM262.8 302V259.6H242.8V302H262.8ZM252.8 249.6H221.4V269.6H252.8V249.6ZM231.4 259.6V243.6H211.4V259.6H231.4ZM276.308 356.2L278.477 346.438L278.216 346.38L277.952 346.336L276.308 356.2ZM269.908 354.4H259.908V360.994L265.969 363.591L269.908 354.4ZM269.908 339.2L272.333 329.499L259.908 326.392V339.2H269.908ZM276.708 340.6L278.352 330.736L276.708 340.6ZM293.708 339.2L289.721 330.029L289.645 330.062L289.57 330.096L293.708 339.2ZM301.108 332.2L292.383 327.314L301.108 332.2ZM303.908 176.2V166.2H293.908V176.2H303.908ZM321.908 176.2H331.908V166.2H321.908V176.2ZM317.308 339.4L308.446 334.767L308.424 334.808L308.403 334.849L317.308 339.4ZM304.308 352.6L299.836 343.656L299.751 343.698L299.668 343.742L304.308 352.6ZM284.708 347C282.032 347 279.989 346.774 278.477 346.438L274.139 365.962C277.427 366.693 280.984 367 284.708 367V347ZM277.952 346.336C276.191 346.043 274.85 345.639 273.847 345.209L265.969 363.591C268.699 364.761 271.625 365.557 274.664 366.064L277.952 346.336ZM279.908 354.4V339.2H259.908V354.4H279.908ZM267.482 348.901C269.899 349.506 272.429 350.025 275.064 350.464L278.352 330.736C276.187 330.375 274.183 329.961 272.333 329.499L267.482 348.901ZM275.064 350.464C278.056 350.963 281.142 351.2 284.308 351.2V331.2C282.14 331.2 280.16 331.037 278.352 330.736L275.064 350.464ZM284.308 351.2C289.018 351.2 293.568 350.248 297.846 348.304L289.57 330.096C287.981 330.818 286.264 331.2 284.308 331.2V351.2ZM297.695 348.371C303.046 346.044 307.057 342.043 309.833 337.086L292.383 327.314C291.425 329.024 290.502 329.689 289.721 330.029L297.695 348.371ZM309.833 337.086C312.882 331.642 313.908 325.026 313.908 318.2H293.908C293.908 323.374 293.067 326.091 292.383 327.314L309.833 337.086ZM313.908 318.2V176.2H293.908V318.2H313.908ZM303.908 186.2H321.908V166.2H303.908V186.2ZM311.908 176.2V316.8H331.908V176.2H311.908ZM311.908 316.8C311.908 324.981 310.531 330.778 308.446 334.767L326.17 344.033C330.218 336.289 331.908 327.019 331.908 316.8H311.908ZM308.403 334.849C306.229 339.103 303.379 341.884 299.836 343.656L308.78 361.544C316.437 357.716 322.253 351.697 326.212 343.951L308.403 334.849ZM299.668 343.742C295.738 345.8 290.85 347 284.708 347V367C293.499 367 301.678 365.266 308.948 361.458L299.668 343.742Z" fill="url(#paint1_linear_139_2)"/>
</g>
<defs>
<filter id="filter0_d_139_2" x="148.2" y="174.2" width="177.708" height="190.8" filterUnits="userSpaceOnUse" color-interpolation-filters="sRGB">
<feFlood flood-opacity="0" result="BackgroundImageFix"/>
<feColorMatrix in="SourceAlpha" type="matrix" values="0 0 0 0 0 0 0 0 0 0 0 0 0 0 0 0 0 0 127 0" result="hardAlpha"/>
<feOffset dy="4"/>
<feGaussianBlur stdDeviation="2"/>
<feComposite in2="hardAlpha" operator="out"/>
<feColorMatrix type="matrix" values="0 0 0 0 0 0 0 0 0 0 0 0 0 0 0 0 0 0 0.25 0"/>
<feBlend mode="normal" in2="BackgroundImageFix" result="effect1_dropShadow_139_2"/>
<feBlend mode="normal" in="SourceGraphic" in2="effect1_dropShadow_139_2" result="shape"/>
</filter>
<linearGradient id="paint0_linear_139_2" x1="11" y1="24" x2="472" y2="498" gradientUnits="userSpaceOnUse">
<stop offset="0.129623" stop-color="#181A23"/>
<stop offset="0.823523" stop-color="#272D4A"/>
</linearGradient>
<linearGradient id="paint1_linear_139_2" x1="287.5" y1="119" x2="287.5" y2="414" gradientUnits="userSpaceOnUse">
<stop offset="0.166082" stop-color="#0ECDF7"/>
<stop offset="1" stop-color="#272D4A" stop-opacity="0"/>
</linearGradient>
</defs>
</svg>
